<?xml version="1.0" encoding="utf-8"?>
<!-- Generator: Adobe Illustrator 27.5.0, SVG Export Plug-In . SVG Version: 6.00 Build 0)  -->
<svg version="1.1" id="Layer_1" xmlns="http://www.w3.org/2000/svg" xmlns:xlink="http://www.w3.org/1999/xlink" x="0px" y="0px"
	 viewBox="0 0 1200 800" style="enable-background:new 0 0 1200 800;" xml:space="preserve">
<style type="text/css">
	.st0{fill:#2D2E2D;}
	.st1{fill:#4A4238;}
</style>
<path class="st0" d="M574.9,424.5L563,457.5c0,1.3-1.3,1.3-1.3,1.3h-18.5c-1.3,0-1.3,0-1.3-1.3c10.6-27.8,26.4-75.4,38.4-107.1
	c0-1.3,1.3-4,1.3-10.6c0-1.3,0-1.3,1.3-1.3h25.1c1.3-1.3,1.3,0,1.3,0c13.2,38.4,29.1,79.3,42.3,117.7c0,1.3,0,1.3-1.3,1.3h-21.2
	c-1.3,0-1.3,0-1.3-1.3l-11.9-33.1h-41L574.9,424.5z M611.9,406c-4-11.9-13.2-37-15.9-50.3c-2.6,11.9-10.6,33.1-15.9,50.3H611.9z
	 M663.5,413.9c0-26.4,19.8-47.6,51.6-47.6c4,0,7.9,0,10.6,1.3v-39.7c0-1.3,0-1.3,1.3-1.3h19.8c1.3,0,1.3,0,1.3,1.3v120.3
	c0,1.3,0,1.3-1.3,1.3c-11.9,5.3-25.1,9.3-37,9.3C682,460.2,663.5,445.6,663.5,413.9L663.5,413.9z M724.3,386.1
	c-2.6-1.3-6.6-1.3-10.6-1.3c-17.2,0-27.8,10.6-27.8,29.1c0,21.2,11.9,29.1,26.4,29.1c4,0,9.2-1.3,13.2-1.3v-55.5H724.3z
	 M859.2,412.6c0,29.1-18.5,47.6-45,47.6c-31.7,0-45-23.8-45-46.3c0-27.8,18.5-46.3,46.3-46.3C843.3,366.3,859.2,387.4,859.2,412.6
	L859.2,412.6z M791.8,412.6c0,18.5,7.9,30.4,22.5,30.4c11.9,0,21.2-7.9,21.2-30.4c0-17.2-6.6-30.4-22.5-30.4
	C801,383.5,791.8,394,791.8,412.6z M898.9,327.9c1.3,0,1.3,0,1.3,1.3v42.3c6.6-2.6,13.2-4,19.8-4c25.1,0,41,18.5,41,42.3
	c0,31.7-25.1,51.6-54.2,51.6c-9.2,0-18.5-1.3-27.8-4c-1.3,0-1.3-1.3-1.3-1.3v-127c0-1.3,0-1.3,1.3-1.3H898.9z M916.1,384.8
	c-5.3,0-10.6,1.3-14.5,2.6v54.2c2.6,1.3,6.6,1.3,10.6,1.3c13.2,0,29.1-10.6,29.1-31.7C939.9,394,929.3,384.8,916.1,384.8z
	 M1003.4,417.9c0,14.6,9.2,23.8,27.8,23.8c6.6,0,14.5-1.3,22.5-4c0,0,1.3,0,1.3,1.3v14.5c0,1.3,0,1.3-1.3,2.6
	c-6.6,4-15.9,5.3-27.8,5.3c-33.1,0-46.3-22.5-46.3-46.3c0-26.4,15.9-47.6,43.7-47.6c27.8,0,38.3,21.2,38.3,38.4
	c0,7.9-1.3,11.9-1.3,11.9L1003.4,417.9L1003.4,417.9z M1032.4,403.3c6.6,0,7.9-1.3,7.9-1.3v-2.6c0-5.3-4-17.2-18.5-17.2
	c-11.9,0-18.5,9.3-19.8,21.2H1032.4z"/>
<path class="st1" d="M-184.3,9.1l92.6,220.8V9.1H-184.3z M-341.7,9.1v220.8l92.6-220.8H-341.7z M-257.1,185h42.3l18.5,45h38.4
	l-59.5-140.2L-257.1,185z"/>
</svg>
