<?xml version="1.0" encoding="UTF-8"?><svg id="Layer_1" xmlns="http://www.w3.org/2000/svg" xmlns:xlink="http://www.w3.org/1999/xlink" viewBox="0 0 137.82 118.71"><defs><style>.cls-1{fill:url(#linear-gradient);}.cls-2{fill:#1f4495;}</style><linearGradient id="linear-gradient" x1="68.91" y1="118.71" x2="68.91" y2="0" gradientUnits="userSpaceOnUse"><stop offset=".01" stop-color="#efe1c7"/><stop offset=".65" stop-color="#ccc0b2"/><stop offset="1" stop-color="#bfb4aa"/></linearGradient></defs><rect class="cls-1" width="137.82" height="118.71"/><path class="cls-2" d="m70.08,41.94v-13.59h-31.04v28.39h.03s-.02.03-.02.06v4.29h0v28.85h31.04v-13.5h4.23v17.85H25.68v-4.35h8.46V28.35h-8.46v-4.35h48.62v17.94h-4.23Zm-22.69,23.39h23.45v-4.35h-23.47s.02.04.02.06v4.29Z"/><path class="cls-2" d="m103.44,89.94l-15.16-25.52c5.42-1.11,9.51-3.28,12.25-6.52,2.74-3.24,4.12-7.63,4.12-13.18,0-7.03-2.22-12.24-6.66-15.63-4.44-3.39-11.19-5.09-20.25-5.09h-12.49c.62.96,1.14,1.99,1.38,3.12.09.42.16.82.24,1.23h10.59c7.46,0,12.93,1.31,16.42,3.93,3.48,2.62,5.22,6.77,5.22,12.44s-1.7,9.73-5.08,12.35c-3.39,2.62-8.6,3.93-15.63,3.93h-11.83c-.14,1.45-.21,2.9-.3,4.35h12.32c1.48,0,2.87-.03,4.16-.09l17.11,29.04h12.3v-4.35h-8.69Z"/></svg>