<?xml version="1.0" encoding="UTF-8"?><svg id="Layer_1" xmlns="http://www.w3.org/2000/svg" viewBox="0 0 172.25 74.12"><defs><style>.cls-1{fill:#204197;}.cls-2{fill:#1f4495;}.cls-3{opacity:.2;}.cls-4{opacity:.95;}</style></defs><g class="cls-4"><path class="cls-1" d="m18.5,23c2.88,0,5.06.74,6.54,2.22s2.22,3.55,2.22,6.22-.74,4.75-2.22,6.24c-1.48,1.49-3.66,2.23-6.54,2.2h-8.72s0,11.68,0,11.68h-3.8s0-28.56,0-28.56h12.52Zm-1.29,13.68c2.16.03,3.74-.41,4.74-1.32,1-.91,1.5-2.21,1.5-3.92s-.5-3.01-1.5-3.9c-1-.89-2.58-1.34-4.74-1.34h-7.44s0,10.48,0,10.48h7.44Z"/><path class="cls-1" d="m32.21,36.98c.43-1.32,1.07-2.47,1.92-3.44.85-.97,1.91-1.74,3.16-2.3,1.25-.56,2.69-.84,4.32-.84,1.65,0,3.1.28,4.34.84,1.24.56,2.29,1.33,3.14,2.3.85.97,1.49,2.12,1.92,3.44.43,1.32.64,2.74.64,4.26,0,1.52-.21,2.93-.64,4.24-.43,1.31-1.07,2.45-1.92,3.42-.85.97-1.9,1.73-3.14,2.28s-2.69.82-4.34.82c-1.63,0-3.07-.28-4.32-.82-1.25-.55-2.31-1.31-3.16-2.28-.85-.97-1.49-2.11-1.92-3.42-.43-1.31-.64-2.72-.64-4.24,0-1.52.21-2.94.64-4.26Zm3.46,7.6c.33.97.79,1.79,1.38,2.44.59.65,1.27,1.15,2.06,1.5s1.62.52,2.5.52c.88,0,1.71-.17,2.5-.52.79-.35,1.47-.85,2.06-1.5.59-.65,1.05-1.47,1.38-2.44.33-.97.5-2.09.5-3.34,0-1.25-.17-2.37-.5-3.34-.33-.97-.79-1.79-1.38-2.46-.59-.67-1.27-1.17-2.06-1.52-.79-.35-1.62-.52-2.5-.52s-1.71.17-2.5.52c-.79.35-1.47.85-2.06,1.52-.59.67-1.05,1.49-1.38,2.46-.33.97-.5,2.09-.5,3.34,0,1.25.17,2.37.5,3.34Z"/><path class="cls-1" d="m60.09,30.89v4.36s.08,0,.08,0c.83-1.68,1.84-2.92,3.04-3.72,1.2-.8,2.72-1.17,4.56-1.12v3.6c-1.36,0-2.52.19-3.48.56-.96.37-1.73.92-2.32,1.64-.59.72-1.01,1.59-1.28,2.62-.27,1.03-.4,2.21-.4,3.54v9.2s-3.4,0-3.4,0v-20.68s3.21,0,3.21,0Z"/><path class="cls-1" d="m84.54,30.9v3s-4.12,0-4.12,0v12.84c0,.4.03.72.1.96s.19.43.38.56c.19.13.45.22.78.26.33.04.77.06,1.3.06h1.56v3h-2.6c-.88,0-1.63-.06-2.26-.18-.63-.12-1.13-.34-1.52-.66-.39-.32-.67-.77-.86-1.36s-.28-1.36-.28-2.32v-13.16s-3.52,0-3.52,0v-3s3.52,0,3.52,0v-6.2s3.4,0,3.4,0v6.2s4.12,0,4.12,0Z"/><path class="cls-1" d="m89.65,33.9v-3s3.48,0,3.48,0v-3.08c0-1.68.49-2.95,1.46-3.82.97-.87,2.39-1.3,4.26-1.3.32,0,.69.03,1.1.08.41.05.78.13,1.1.24v2.96c-.29-.11-.61-.18-.96-.22-.35-.04-.67-.06-.96-.06-.83,0-1.47.16-1.92.48-.45.32-.68.93-.68,1.84v2.88s4,0,4,0v3s-4,0-4,0v17.68s-3.41,0-3.41,0v-17.68s-3.47,0-3.47,0Z"/><path class="cls-1" d="m103.85,37.01c.43-1.32,1.07-2.47,1.92-3.44.85-.97,1.91-1.74,3.16-2.3,1.25-.56,2.69-.84,4.32-.84,1.65,0,3.1.28,4.34.84,1.24.56,2.29,1.33,3.14,2.3.85.97,1.49,2.12,1.92,3.44.43,1.32.64,2.74.64,4.26,0,1.52-.21,2.93-.64,4.24-.43,1.31-1.07,2.45-1.92,3.42-.85.97-1.9,1.73-3.14,2.28s-2.69.82-4.34.82c-1.63,0-3.07-.27-4.32-.82-1.25-.55-2.31-1.31-3.16-2.28-.85-.97-1.49-2.11-1.92-3.42-.43-1.31-.64-2.72-.64-4.24,0-1.52.21-2.94.64-4.26Zm3.46,7.6c.33.97.79,1.79,1.38,2.44.59.65,1.27,1.15,2.06,1.5s1.62.52,2.5.52c.88,0,1.71-.17,2.5-.52.79-.35,1.47-.85,2.06-1.5.59-.65,1.05-1.47,1.38-2.44.33-.97.5-2.09.5-3.34,0-1.25-.17-2.37-.5-3.34-.33-.97-.79-1.79-1.38-2.46-.59-.67-1.27-1.17-2.06-1.52-.79-.35-1.62-.52-2.5-.52-.88,0-1.71.17-2.5.52-.79.35-1.47.85-2.06,1.52-.59.67-1.05,1.49-1.38,2.46-.33.97-.5,2.09-.5,3.34,0,1.25.17,2.37.5,3.34Z"/><path class="cls-1" d="m131.66,23.04v28.56s-3.41,0-3.41,0v-28.56s3.41,0,3.41,0Z"/><path class="cls-1" d="m141.9,30.92v20.68s-3.41,0-3.41,0v-20.68s3.41,0,3.41,0Zm-3.4-3.72v-4.16s3.4,0,3.4,0v4.16s-3.4,0-3.4,0Z"/><path class="cls-1" d="m148.06,37.02c.43-1.32,1.07-2.47,1.92-3.44.85-.97,1.91-1.74,3.16-2.3,1.25-.56,2.69-.84,4.32-.84,1.65,0,3.1.28,4.34.84,1.24.56,2.29,1.33,3.14,2.3.85.97,1.49,2.12,1.92,3.44.43,1.32.64,2.74.64,4.26,0,1.52-.21,2.93-.64,4.24-.43,1.31-1.07,2.45-1.92,3.42-.85.97-1.9,1.73-3.14,2.28s-2.69.82-4.34.82c-1.63,0-3.07-.27-4.32-.82-1.25-.55-2.31-1.31-3.16-2.28-.85-.97-1.49-2.11-1.92-3.42-.43-1.31-.64-2.72-.64-4.24,0-1.52.21-2.94.64-4.26Zm3.46,7.6c.33.97.79,1.79,1.38,2.44.59.65,1.27,1.16,2.06,1.5s1.62.52,2.5.52,1.71-.17,2.5-.52c.79-.35,1.47-.85,2.06-1.5.59-.65,1.05-1.47,1.38-2.44.33-.97.5-2.09.5-3.34,0-1.25-.17-2.37-.5-3.34-.33-.97-.79-1.79-1.38-2.46-.59-.67-1.27-1.17-2.06-1.52-.79-.35-1.62-.52-2.5-.52-.88,0-1.71.17-2.5.52-.79.35-1.47.85-2.06,1.52-.59.67-1.05,1.49-1.38,2.46-.33.97-.5,2.09-.5,3.34,0,1.25.17,2.37.5,3.34Z"/></g><g class="cls-3"><path class="cls-2" d="m123.54,59.33v3.44h-9.73l-13.54-22.98c-1.02.04-2.12.07-3.29.07h-24.68v-3.39s-.01-.02-.01-.04h24.55c5.56,0,9.69-1.03,12.37-3.11,2.67-2.07,4.02-5.33,4.02-9.77s-1.38-7.77-4.14-9.84c-2.76-2.07-7.09-3.11-12.99-3.11h-2.49v10.77h-3.35v-10.77h-24.56v22.48h.01s-.01.02-.01.04v26.23h24.56v-10.69h3.35v14.13h-38.48v-3.44h6.69V10.58h-6.69v-3.44h41.19c7.18,0,12.52,1.35,16.03,4.03,3.52,2.67,5.27,6.8,5.27,12.36,0,4.39-1.08,7.87-3.25,10.43-2.18,2.56-5.41,4.28-9.7,5.16l12,20.21h6.88Z"/></g></svg>