<?xml version="1.0" encoding="UTF-8"?><svg id="Layer_3" xmlns="http://www.w3.org/2000/svg" viewBox="0 0 82.83 71.41"><defs><style>.cls-1{fill:#49433a;}</style></defs><path class="cls-1" d="m24.92,5.5c-.26.02-.51.1-.72.25-12.87,8.96-16.05,26.71-7.08,39.58,5.24,7.52,13.47,11.7,21.98,12.12v4.2c-5.44.36-11.32,2.73-11.32,2.73-.61.24-.95.87-.84,1.51.12.63.68,1.1,1.33,1.1h11.96c.15.03.3.03.44,0h11.97c.65,0,1.21-.47,1.33-1.1.12-.64-.23-1.27-.84-1.51,0,0-5.88-2.36-11.32-2.73v-4.2c5.17-.24,10.34-1.87,14.89-5.04.42-.27.65-.74.61-1.24-.04-.49-.34-.92-.79-1.13s-.97-.15-1.37.14c-4.43,3.08-9.49,4.58-14.5,4.62-.08-.01-.15-.02-.23-.02-.04,0-.07,0-.11,0-8.08-.04-16-3.87-20.98-11.01-8.13-11.67-5.27-27.68,6.4-35.81.48-.33.7-.93.54-1.49-.15-.57-.66-.96-1.24-.99h-.13Zm15.53.57c-4.79,0-9.24,1.48-12.93,3.99-.07.05-.15.09-.23.14-.22.15-.42.32-.61.5-5.6,4.2-9.24,10.87-9.24,18.39,0,.48.04.94.07,1.41-.13.36-.1.77.08,1.11.86,7.88,5.71,14.55,12.48,18,.26.34.68.55,1.12.54,2.84,1.25,5.97,1.96,9.27,1.96,4.83,0,9.31-1.5,13.01-4.05.05-.03.1-.06.14-.09.2-.14.39-.29.57-.44,5.63-4.2,9.29-10.89,9.29-18.44,0-.47-.04-.91-.07-1.38.16-.39.13-.84-.08-1.21-.88-7.86-5.74-14.52-12.51-17.95-.26-.32-.66-.51-1.07-.51-2.85-1.26-5.98-1.97-9.29-1.97Zm0,2.71c2.21,0,4.34.36,6.33,1.02l-4.8,3.34c-1.11-.84-2.23-1.58-3.35-2.19-1.15-.62-2.3-1.11-3.44-1.46,1.68-.44,3.44-.71,5.26-.71Zm9.35,2.28c2.53,1.31,4.74,3.13,6.51,5.33l-6.66,4.64c-1.71-2.3-3.55-4.34-5.46-6.06l5.61-3.91Zm-18.41.56c1.66-.08,3.69.48,5.94,1.7.75.41,1.52.9,2.3,1.45l-5.05,3.52-4.5-6.46c.41-.12.84-.2,1.31-.21Zm-3.52,1.78l4.49,6.44-5.04,3.51c-.24-.91-.44-1.81-.57-2.66-.47-3.25-.02-5.76,1.12-7.29Zm14.03,3.17c1.9,1.65,3.79,3.69,5.52,6.01l-6.63,4.62-4.63-6.64,5.73-3.99Zm-18,.77c-.06,1.19-.01,2.45.18,3.75.19,1.25.49,2.56.89,3.9l-4.78,3.33c.15-4.09,1.49-7.86,3.71-10.98Zm33.95,1.28c1.43,2.38,2.39,5.07,2.75,7.95l-5.61,3.91c-.95-2.39-2.22-4.82-3.79-7.22l6.65-4.63Zm-23.9,3.49l4.63,6.64-6.63,4.62c-1.59-2.44-2.84-4.91-3.73-7.26l5.73-3.99Zm15.03,2.69c1.59,2.44,2.83,4.92,3.72,7.28l-5.73,3.99-4.63-6.64,6.64-4.63Zm-23.05,2.9c.95,2.38,2.23,4.82,3.79,7.22l-6.65,4.63c-1.43-2.38-2.39-5.07-2.75-7.95l5.61-3.9Zm34.8,2.16c-.15,4.09-1.5,7.86-3.72,10.99.07-1.2.02-2.46-.17-3.77-.18-1.25-.49-2.56-.89-3.89l4.78-3.33Zm-20.61,1.12l4.63,6.64-5.73,3.99c-1.91-1.66-3.79-3.68-5.53-6.01l6.63-4.62Zm13.47,3.86c.24.91.44,1.8.56,2.64.48,3.26.03,5.76-1.12,7.29l-4.48-6.43,5.04-3.51Zm-22.33,2.32c1.71,2.31,3.56,4.34,5.47,6.06l-5.62,3.91c-2.53-1.31-4.74-3.13-6.51-5.33l6.65-4.64Zm15.07,2.74l4.48,6.43c-1.84.54-4.35.1-7.24-1.47-.75-.41-1.51-.9-2.28-1.45l5.04-3.51Zm-7.39,5.15c1.11.84,2.23,1.58,3.34,2.18,1.15.63,2.32,1.12,3.45,1.47-1.68.45-3.44.71-5.27.71-2.21,0-4.34-.36-6.33-1.02l4.81-3.35Z"/></svg>