<?xml version="1.0" encoding="UTF-8"?><svg id="Layer_3" xmlns="http://www.w3.org/2000/svg" viewBox="0 0 82.83 71.41"><defs><style>.cls-1{fill:#49433a;}</style></defs><path class="cls-1" d="m21.25,5.93c-3.95,0-7.18,3.23-7.18,7.18v45.97c0,3.95,3.23,7.18,7.18,7.18h45.97c3.95,0,7.18-3.23,7.18-7.18V13.12c0-3.95-3.23-7.18-7.18-7.18H21.25Zm0,2.87h45.97c2.4,0,4.31,1.91,4.31,4.31v45.97c0,2.4-1.91,4.31-4.31,4.31H21.25c-2.4,0-4.31-1.91-4.31-4.31V13.12c0-2.4,1.91-4.31,4.31-4.31Zm7.18,7.2c-1.57,0-2.99.47-4.04,1.35s-1.69,2.2-1.69,3.61c0,2.68,2.33,4.77,5.29,4.98,0,0,0,0,0,0,.14.05.29.07.44.08,3.27,0,5.73-2.29,5.73-5.06,0-.03,0-.05,0-.08-.15-2.73-2.58-4.89-5.73-4.89Zm0,2.84c2,0,2.79.89,2.88,2.16-.02,1.23-.78,2.18-2.88,2.18s-2.89-1.02-2.89-2.22c0-.6.22-1.05.68-1.44.46-.39,1.2-.68,2.21-.68Zm-4.31,8.64c-.79,0-1.44.64-1.44,1.44v27.29c0,.79.64,1.44,1.44,1.44h8.62c.79,0,1.44-.64,1.44-1.44v-27.29c0-.79-.64-1.44-1.44-1.44h-8.62Zm12.93,0c-.79,0-1.44.64-1.44,1.44v27.29c0,.79.64,1.44,1.44,1.44h8.62c.79,0,1.44-.64,1.44-1.44v-14.37c0-1.19.33-2.38.9-3.15s1.29-1.24,2.67-1.22c1.42.02,2.17.51,2.73,1.27.57.76.88,1.9.88,3.1v14.37c0,.79.64,1.44,1.44,1.44h8.62c.79,0,1.44-.64,1.44-1.44v-15.43c0-4.25-1.26-7.62-3.42-9.9s-5.16-3.4-8.34-3.4-5.32,1.01-6.91,2.05v-.61c0-.79-.64-1.44-1.44-1.44h-8.62Zm-11.49,2.87h5.75v24.42h-5.75v-24.42Zm12.93,0h5.75v2.24c0,.79.64,1.44,1.44,1.44.45,0,.88-.21,1.15-.57,0,0,2.26-3.11,7.2-3.11,2.52,0,4.68.84,6.26,2.5s2.63,4.23,2.63,7.93v13.99h-5.75v-12.93c0-1.68-.4-3.41-1.45-4.82s-2.81-2.39-4.99-2.43c-2.19-.04-3.98.96-5.03,2.39s-1.46,3.18-1.46,4.86v12.93h-5.75v-24.42Z"/></svg>