<?xml version="1.0" encoding="UTF-8"?><svg id="Layer_3" xmlns="http://www.w3.org/2000/svg" viewBox="0 0 82.83 71.41"><defs><style>.cls-1{fill:none;stroke:#4a4238;stroke-linecap:round;stroke-linejoin:round;stroke-width:2px;}</style></defs><line class="cls-1" x1="57.24" y1="12.09" x2="27.4" y2="12.09"/><path class="cls-1" d="m62.33,12.09h5.96c1.5,0,2.73,1.22,2.73,2.73v41.34c0,1.5-1.23,2.72-2.73,2.72H16.35c-1.5,0-2.73-1.22-2.73-2.72V14.82c0-1.51,1.23-2.73,2.73-2.73h5.96"/><line class="cls-1" x1="13.62" y1="18.77" x2="71.02" y2="18.77"/><path class="cls-1" d="m26.35,14.93h-2.98c-.58,0-1.05-.47-1.05-1.05v-5.33c0-.58.47-1.05,1.05-1.05h2.98c.58,0,1.05.47,1.05,1.05v5.33c0,.58-.47,1.05-1.05,1.05Z"/><path class="cls-1" d="m61.27,14.93h-2.98c-.58,0-1.05-.47-1.05-1.05v-5.33c0-.58.47-1.05,1.05-1.05h2.98c.58,0,1.05.47,1.05,1.05v5.33c0,.58-.47,1.05-1.05,1.05Z"/><rect class="cls-1" x="19.22" y="24.79" width="10.47" height="9.52"/><rect class="cls-1" x="56.59" y="46.63" width="10.47" height="6.07"/><line class="cls-1" x1="38" y1="24.79" x2="67.06" y2="24.79"/><line class="cls-1" x1="38" y1="29.55" x2="56.39" y2="29.55"/><line class="cls-1" x1="60.7" y1="29.55" x2="67.06" y2="29.55"/><line class="cls-1" x1="47.2" y1="34.31" x2="67.06" y2="34.31"/><line class="cls-1" x1="38" y1="34.31" x2="42.32" y2="34.31"/><line class="cls-1" x1="19.22" y1="40.5" x2="67.06" y2="40.5"/><line class="cls-1" x1="32.92" y1="46.63" x2="52.53" y2="46.63"/><line class="cls-1" x1="47.2" y1="52.77" x2="52.53" y2="52.77"/><line class="cls-1" x1="19.22" y1="52.77" x2="42.32" y2="52.77"/><line class="cls-1" x1="19.22" y1="46.63" x2="28.32" y2="46.63"/></svg>