<?xml version="1.0" encoding="UTF-8"?><svg id="Layer_3" xmlns="http://www.w3.org/2000/svg" viewBox="0 0 82.83 71.41"><defs><style>.cls-1{fill:none;stroke:#4a4238;stroke-miterlimit:10;stroke-width:2px;}</style></defs><path class="cls-1" d="m12.51,22.84v38.11c0,.73.59,1.31,1.31,1.31h55.19c.73,0,1.31-.59,1.31-1.31h0V24.15"/><polyline class="cls-1" points="12.51 22.84 41.42 4.44 70.33 22.84 70.33 24.15 45.94 41.9 41.42 45.18 36.9 41.9 12.51 24.15"/><path class="cls-1" d="m69.01,62.26H13.82c-.73,0-1.31-.59-1.31-1.31v-1.31l24.39-17.74,4.52,3.29,4.52-3.29,24.39,17.74v1.31c0,.73-.59,1.31-1.31,1.31h0Z"/></svg>