<?xml version="1.0" encoding="UTF-8"?><svg id="Layer_3" xmlns="http://www.w3.org/2000/svg" viewBox="0 0 82.83 71.41"><defs><style>.cls-1{fill:#4a4238;}</style></defs><path class="cls-1" d="m42.43,62.23h-6.83l-.7-.62c-.85-.74-20.7-18.3-20.7-34.14,0-13.71,11.11-24.82,24.82-24.82s24.82,11.11,24.82,24.82c0,15.84-19.86,33.4-20.7,34.14l-.7.62Zm-4.94-4.96h3.05c3.39-3.14,18.34-17.68,18.34-29.79,0-10.97-8.89-19.86-19.86-19.86s-19.86,8.89-19.86,19.86c0,12.13,14.95,26.65,18.33,29.79Z"/><path class="cls-1" d="m39.01,39.88c-6.85,0-12.41-5.56-12.41-12.41s5.56-12.41,12.41-12.41,12.41,5.56,12.41,12.41c0,6.85-5.56,12.4-12.41,12.41Zm0-19.86c-4.11,0-7.45,3.33-7.45,7.45s3.33,7.45,7.45,7.45,7.45-3.33,7.45-7.45-3.33-7.45-7.45-7.45Z"/></svg>