<?xml version="1.0" encoding="UTF-8"?><svg id="Layer_3" xmlns="http://www.w3.org/2000/svg" viewBox="0 0 82.83 71.41"><defs><style>.cls-1{fill:none;stroke:#49433a;stroke-miterlimit:10;stroke-width:2px;}</style></defs><rect class="cls-1" x="26.23" y="13.71" width="34.07" height="7.3"/><path class="cls-1" d="m60.3,38.05c5.38,0,9.74-4.36,9.74-9.74v-7.3h-9.74"/><path class="cls-1" d="m26.23,38.05c-5.38,0-9.74-4.36-9.74-9.74v-7.3h9.74"/><line class="cls-1" x1="38.4" y1="50.22" x2="38.4" y2="59.95"/><line class="cls-1" x1="46.91" y1="50.22" x2="46.91" y2="59.95"/><path class="cls-1" d="m26.23,67.25h34.07v-3.65c0-2.02-1.63-3.65-3.65-3.65h-26.77c-2.02,0-3.65,1.63-3.65,3.65v3.65Z"/><path class="cls-1" d="m60.3,21.01v19.47c0,5.38-4.36,9.74-9.74,9.74h-14.6c-5.38,0-9.74-4.36-9.74-9.74v-19.47"/></svg>