<?xml version="1.0" encoding="UTF-8"?><svg id="Layer_3" xmlns="http://www.w3.org/2000/svg" viewBox="0 0 82.83 71.41"><defs><style>.cls-1{fill:#49433a;}</style></defs><path class="cls-1" d="m68.08,32.13l3.12-2.36c.84-.61,1.14-1.75.76-2.74l-2.59-6.17c-.38-.99-1.45-1.52-2.44-1.37l-3.81.53c-1.45.23-2.9-.23-3.96-1.3h0c-1.07-1.07-1.52-2.51-1.3-3.96l.53-3.81c.15-1.07-.38-2.06-1.37-2.44l-6.17-2.59c-.99-.38-2.06-.08-2.74.76l-2.29,3.2c-.84,1.14-2.21,1.75-3.66,1.75h-.08c-1.45,0-2.74-.61-3.66-1.75l-2.36-3.2c-.61-.84-1.75-1.14-2.74-.76l-6.17,2.59c-.99.38-1.52,1.45-1.37,2.44l.61,3.89c.23,1.45-.3,2.82-1.3,3.81h0c-.99.99-2.44,1.52-3.81,1.3l-3.89-.61c-1.07-.15-2.06.38-2.44,1.37l-2.59,6.17c-.38.99-.08,2.06.76,2.74l3.2,2.36c1.14.84,1.75,2.21,1.75,3.66v.08c0,1.45-.61,2.74-1.75,3.66l-3.2,2.36c-.84.61-1.14,1.75-.76,2.74l2.59,6.17c.38.99,1.45,1.52,2.44,1.37l3.89-.61c1.45-.23,2.82.3,3.81,1.3h0c.99.99,1.52,2.44,1.3,3.81l-.61,3.89c-.15,1.07.38,2.06,1.37,2.44l6.17,2.59c.99.38,2.06.08,2.74-.76l2.36-3.12c.84-1.14,2.21-1.75,3.66-1.75h.08c1.45,0,2.74.61,3.66,1.75l2.36,3.2c.61.84,1.75,1.14,2.74.76l6.17-2.59c.99-.38,1.52-1.45,1.37-2.44l-.61-3.89c-.23-1.45.3-2.82,1.3-3.81h0c.99-.99,2.44-1.52,3.81-1.3l3.89.61c1.07.15,2.06-.38,2.44-1.37l2.59-6.17c.38-.99.08-2.06-.76-2.74l-3.05-2.36c-1.14-.84-1.75-2.21-1.75-3.66v-.08c-.08-1.37.61-2.74,1.75-3.58Zm-24.31,18.82c-9.6.99-17.68-7.09-16.76-16.69.69-7.16,6.48-12.95,13.64-13.64,9.68-.91,17.68,7.09,16.69,16.69-.69,7.16-6.48,12.95-13.56,13.64Z"/><circle class="cls-1" cx="42.17" cy="35.78" r="7.62"/></svg>