<?xml version="1.0" encoding="UTF-8"?><svg id="Layer_3" xmlns="http://www.w3.org/2000/svg" viewBox="0 0 82.83 71.41"><defs><style>.cls-1{fill:none;stroke:#4a4238;stroke-linecap:round;stroke-linejoin:round;stroke-width:2px;}</style></defs><path class="cls-1" d="m45.03,64.45c2.7,2.12,6.41,2.42,9.41.75l9.12-5.05c2.32-1.28,2.58-4.52.49-6.15l-6.7-5.26c-1.29-1-3.08-1.05-4.42-.11l-5.49,3.88c-1.81,1.28-4.25,1.21-5.99-.15l-16.24-12.74c-1.74-1.37-2.38-3.72-1.58-5.78l2.45-6.26c.6-1.52.12-3.25-1.16-4.26l-6.72-5.26c-2.08-1.63-5.16-.61-5.86,1.94l-2.72,10.06c-.89,3.31.28,6.84,2.98,8.95l32.44,25.44Z"/><path class="cls-1" d="m38.08,33.19s4.94-.35,5.98,4.6"/><path class="cls-1" d="m36.38,27.87s10.23-1.12,13.26,10.2"/><path class="cls-1" d="m36,22.22s14.64-1.27,19.18,14.75"/><path class="cls-1" d="m34.64,16.38s20.27-1.75,26.55,20.42"/><path class="cls-1" d="m33.29,10.4s25.98-2.25,34.03,26.18"/></svg>